<svg id="Group_2_copy_7" data-name="Group 2 copy 7" xmlns="http://www.w3.org/2000/svg" width="32" height="32" viewBox="0 0 32 32">
  <metadata><?xpacket begin="﻿" id="W5M0MpCehiHzreSzNTczkc9d"?>
<x:xmpmeta xmlns:x="adobe:ns:meta/" x:xmptk="Adobe XMP Core 5.6-c138 79.159824, 2016/09/14-01:09:01        ">
   <rdf:RDF xmlns:rdf="http://www.w3.org/1999/02/22-rdf-syntax-ns#">
      <rdf:Description rdf:about=""/>
   </rdf:RDF>
</x:xmpmeta>
                                                                                                    
                                                                                                    
                                                                                                    
                                                                                                    
                                                                                                    
                                                                                                    
                                                                                                    
                                                                                                    
                                                                                                    
                                                                                                    
                                                                                                    
                                                                                                    
                                                                                                    
                                                                                                    
                                                                                                    
                                                                                                    
                                                                                                    
                                                                                                    
                                                                                                    
                                                                                                    
                           
<?xpacket end="w"?></metadata>
<defs>
    <style>
      .cls-1 {
        fill: #fff;
      }

      .cls-2 {
        fill: #536374;
        fill-rule: evenodd;
      }
    </style>
  </defs>
  <rect id="Rounded_Rectangle_2" data-name="Rounded Rectangle 2" class="cls-1" x="0.031" width="31.969" height="31.969" rx="4" ry="4"/>
  <path id="_" data-name="" class="cls-2" d="M16.007,12.782V17.5H11.29V12.782h4.717Zm1.572,7.861H9.718v1.572h7.861V20.643Zm0-9.434H9.718v7.861h7.861V11.21Zm7.861,9.434H19.152v1.572h6.289V20.643Zm0-3.145H19.152v1.572h6.289V17.5Zm0-3.145H19.152v1.572h6.289V14.354Zm0-3.145H19.152v1.572h6.289V11.21ZM6.573,23A0.786,0.786,0,0,1,5,23V11.21H6.573V23Zm20.439,0a0.792,0.792,0,0,1-.786.786H8.011A2.4,2.4,0,0,0,8.146,23V9.637H27.013V23ZM28.585,8.065H6.573V9.637H3.429V23A2.359,2.359,0,0,0,5.787,25.36H26.227A2.359,2.359,0,0,0,28.585,23V8.065Z"/>
</svg>
