<svg xmlns="http://www.w3.org/2000/svg" width="32" height="32" viewBox="0 0 32 32">
  <metadata><?xpacket begin="﻿" id="W5M0MpCehiHzreSzNTczkc9d"?>
<x:xmpmeta xmlns:x="adobe:ns:meta/" x:xmptk="Adobe XMP Core 5.6-c138 79.159824, 2016/09/14-01:09:01        ">
   <rdf:RDF xmlns:rdf="http://www.w3.org/1999/02/22-rdf-syntax-ns#">
      <rdf:Description rdf:about=""/>
   </rdf:RDF>
</x:xmpmeta>
                                                                                                    
                                                                                                    
                                                                                                    
                                                                                                    
                                                                                                    
                                                                                                    
                                                                                                    
                                                                                                    
                                                                                                    
                                                                                                    
                                                                                                    
                                                                                                    
                                                                                                    
                                                                                                    
                                                                                                    
                                                                                                    
                                                                                                    
                                                                                                    
                                                                                                    
                                                                                                    
                           
<?xpacket end="w"?></metadata>
<defs>
    <style>
      .cls-1 {
        fill: #fff;
      }

      .cls-2 {
        fill: #536374;
        fill-rule: evenodd;
      }
    </style>
  </defs>
  <rect id="Rounded_Rectangle_2" data-name="Rounded Rectangle 2" class="cls-1" x="0.031" width="31.969" height="31.969" rx="4" ry="4"/>
  <path id="Av" class="cls-2" d="M10.918,18.051H7.156L8.938,13.39Zm5.957,3.528c-0.414-.036-0.936.036-1.566-1.4,0,0-.234-0.54-4.716-11.051H10.4L7.012,17.817c-1.566,3.726-2.286,3.726-2.79,3.762v0.216H9.028V21.579c-2.5.072-2.106-2.88-1.926-3.294h3.906l0.558,1.278s1.008,2.016-.414,2.016v0.216h5.723V21.579Zm7-12.455V9.358c2.556,0,1.908,3.294,1.638,3.96l-1.872,4.662-2.772-6.533s-0.846-2.088.522-2.088V9.124H15.526V9.358c0.486,0.018.954,0.018,1.566,1.458,0,0,.234.378,4.842,10.979h0.414l3.4-8.423c1.6-3.744,2.592-4.014,3.4-4.014V9.124H23.877Z"/>
</svg>
