<svg xmlns="http://www.w3.org/2000/svg" width="32" height="32" viewBox="0 0 32 32">
  <metadata><?xpacket begin="﻿" id="W5M0MpCehiHzreSzNTczkc9d"?>
<x:xmpmeta xmlns:x="adobe:ns:meta/" x:xmptk="Adobe XMP Core 5.6-c138 79.159824, 2016/09/14-01:09:01        ">
   <rdf:RDF xmlns:rdf="http://www.w3.org/1999/02/22-rdf-syntax-ns#">
      <rdf:Description rdf:about=""/>
   </rdf:RDF>
</x:xmpmeta>
                                                                                                    
                                                                                                    
                                                                                                    
                                                                                                    
                                                                                                    
                                                                                                    
                                                                                                    
                                                                                                    
                                                                                                    
                                                                                                    
                                                                                                    
                                                                                                    
                                                                                                    
                                                                                                    
                                                                                                    
                                                                                                    
                                                                                                    
                                                                                                    
                                                                                                    
                                                                                                    
                           
<?xpacket end="w"?></metadata>
<defs>
    <style>
      .cls-1, .cls-3 {
        fill: #fff;
      }

      .cls-2 {
        fill: #536374;
      }

      .cls-3 {
        fill-rule: evenodd;
      }
    </style>
  </defs>
  <rect id="Rounded_Rectangle_2_copy" data-name="Rounded Rectangle 2 copy" class="cls-1" x="0.031" width="31.969" height="31.969" rx="4" ry="4"/>
  <rect class="cls-2" x="4" y="9" width="24" height="14"/>
  <path id="ok" class="cls-3" d="M12.271,17.328a1.569,1.569,0,0,1-1.215-.5A1.879,1.879,0,0,1,10.6,15.51a1.88,1.88,0,0,1,.455-1.323,1.57,1.57,0,0,1,1.215-.495,1.57,1.57,0,0,1,1.215.495,1.881,1.881,0,0,1,.454,1.323,1.88,1.88,0,0,1-.454,1.323A1.569,1.569,0,0,1,12.271,17.328Zm0,1.422a3.153,3.153,0,0,0,2.3-.918,3.115,3.115,0,0,0,.936-2.322,3.108,3.108,0,0,0-.931-2.318,3.151,3.151,0,0,0-2.3-.913,3.181,3.181,0,0,0-2.3.913,3.093,3.093,0,0,0-.94,2.318,3.107,3.107,0,0,0,.94,2.322A3.167,3.167,0,0,0,12.276,18.75Zm5.76-2.853,2.124,2.79h1.98l-2.6-3.159,2.6-3.159H20.124l-2.088,2.772V12.369H16.5v6.318h1.539V15.9Z"/>
</svg>
