<svg id="Group_2_copy_2" data-name="Group 2 copy 2" xmlns="http://www.w3.org/2000/svg" width="32" height="32" viewBox="0 0 32 32">
  <metadata><?xpacket begin="﻿" id="W5M0MpCehiHzreSzNTczkc9d"?>
<x:xmpmeta xmlns:x="adobe:ns:meta/" x:xmptk="Adobe XMP Core 5.6-c138 79.159824, 2016/09/14-01:09:01        ">
   <rdf:RDF xmlns:rdf="http://www.w3.org/1999/02/22-rdf-syntax-ns#">
      <rdf:Description rdf:about=""/>
   </rdf:RDF>
</x:xmpmeta>
                                                                                                    
                                                                                                    
                                                                                                    
                                                                                                    
                                                                                                    
                                                                                                    
                                                                                                    
                                                                                                    
                                                                                                    
                                                                                                    
                                                                                                    
                                                                                                    
                                                                                                    
                                                                                                    
                                                                                                    
                                                                                                    
                                                                                                    
                                                                                                    
                                                                                                    
                                                                                                    
                           
<?xpacket end="w"?></metadata>
<defs>
    <style>
      .cls-1 {
        fill: #fff;
      }

      .cls-2 {
        fill: #536374;
        fill-rule: evenodd;
      }
    </style>
  </defs>
  <rect id="Rounded_Rectangle_2" data-name="Rounded Rectangle 2" class="cls-1" x="0.031" width="31.969" height="31.969" rx="4" ry="4"/>
  <path id="_" data-name="" class="cls-2" d="M24.137,12.816A8.114,8.114,0,0,0,26,10.883a7.93,7.93,0,0,1-2.109.6,3.663,3.663,0,0,0,1.617-2.039,7.508,7.508,0,0,1-2.355.879,4.175,4.175,0,0,0-1.213-.844,3.522,3.522,0,0,0-1.494-.316,3.566,3.566,0,0,0-1.828.492,3.612,3.612,0,0,0-1.336,1.354,3.659,3.659,0,0,0-.492,1.846,5.121,5.121,0,0,0,.07.844A10.327,10.327,0,0,1,9.266,9.828a3.581,3.581,0,0,0-.07,3.621,4.1,4.1,0,0,0,1.2,1.336,3.476,3.476,0,0,1-1.652-.492v0.07a3.539,3.539,0,0,0,.844,2.32,3.719,3.719,0,0,0,2.109,1.3,4.686,4.686,0,0,1-.984.105q-0.316,0-.668-0.035a3.67,3.67,0,0,0,1.283,1.811,3.434,3.434,0,0,0,2.162.721,7.319,7.319,0,0,1-4.605,1.582q-0.492,0-.879-0.035a10.242,10.242,0,0,0,5.66,1.652,10.142,10.142,0,0,0,5.73-1.652,10.04,10.04,0,0,0,3.551-3.973,10.425,10.425,0,0,0,1.23-4.887A2.09,2.09,0,0,0,24.137,12.816Z"/>
</svg>
