<svg xmlns="http://www.w3.org/2000/svg" width="264" height="88" viewBox="0 0 264 88">
  <metadata><?xpacket begin="﻿" id="W5M0MpCehiHzreSzNTczkc9d"?>
<x:xmpmeta xmlns:x="adobe:ns:meta/" x:xmptk="Adobe XMP Core 5.6-c138 79.159824, 2016/09/14-01:09:01        ">
   <rdf:RDF xmlns:rdf="http://www.w3.org/1999/02/22-rdf-syntax-ns#">
      <rdf:Description rdf:about=""/>
   </rdf:RDF>
</x:xmpmeta>
                                                                                                    
                                                                                                    
                                                                                                    
                                                                                                    
                                                                                                    
                                                                                                    
                                                                                                    
                                                                                                    
                                                                                                    
                                                                                                    
                                                                                                    
                                                                                                    
                                                                                                    
                                                                                                    
                                                                                                    
                                                                                                    
                                                                                                    
                                                                                                    
                                                                                                    
                                                                                                    
                           
<?xpacket end="w"?></metadata>
<defs>
    <style>
      .cls-1 {
        fill: #141215;
      }

      .cls-1, .cls-2 {
        fill-rule: evenodd;
      }
    </style>
  </defs>
  <path class="cls-1" d="M12.984,14.976v5H15v-2.99h3.013V14.96Z"/>
  <path id="Shape_18_copy" data-name="Shape 18 copy" class="cls-1" d="M31.016,14.976v5H29v-2.99H25.986V14.96Z"/>
  <path id="Shape_18_copy_2" data-name="Shape 18 copy 2" class="cls-1" d="M12.984,29.024v-5H15v2.99h3.013V29.04Z"/>
  <path id="Shape_18_copy_3" data-name="Shape 18 copy 3" class="cls-1" d="M31.016,29.024v-5H29v2.99H25.986V29.04Z"/>
  <path id="Shape_18_copy_4" data-name="Shape 18 copy 4" class="cls-1" d="M62.016,20.024v-5H60v2.99H56.986V20.04Z"/>
  <path id="Shape_18_copy_5" data-name="Shape 18 copy 5" class="cls-1" d="M62.016,23.976v5H60v-2.99H56.986V23.96Z"/>
  <path id="Shape_18_copy_6" data-name="Shape 18 copy 6" class="cls-1" d="M69.984,20.024v-5H72v2.99h3.013V20.04Z"/>
  <path id="Shape_18_copy_7" data-name="Shape 18 copy 7" class="cls-1" d="M69.984,23.976v5H72v-2.99h3.013V23.96Z"/>
  <path id="Shape_17_copy" data-name="Shape 17 copy" class="cls-1" d="M27.74,73.164l1.414-1.414-13.13-13.13L14.61,60.035Z"/>
  <path id="Shape_17_copy_2" data-name="Shape 17 copy 2" class="cls-1" d="M16.26,73.164L14.846,71.75l13.13-13.13,1.414,1.414Z"/>
  <path class="cls-2" d="M218.971,59.991v-3H159.99v3h58.981Z"/>
  <path id="Shape_14_copy" data-name="Shape 14 copy" class="cls-2" d="M174.247,46.846l-2.119-2.119L158.706,58.149l2.119,2.119Z"/>
  <path id="Shape_14_copy_2" data-name="Shape 14 copy 2" class="cls-2" d="M174.247,70.154l-2.119,2.119L158.706,58.851l2.119-2.119Z"/>
  <path class="cls-2" d="M86.029,59.991v-3H145.01v3H86.029Z"/>
  <path id="Shape_14_copy-2" data-name="Shape 14 copy" class="cls-2" d="M130.753,46.846l2.119-2.119,13.422,13.422-2.119,2.119Z"/>
  <path id="Shape_14_copy_2-2" data-name="Shape 14 copy 2" class="cls-2" d="M130.753,70.154l2.119,2.119,13.422-13.422-2.119-2.119Z"/>
  <path id="_" data-name=" " class="cls-2" d="M66.843,64.437a7.635,7.635,0,0,0-.618-0.5,0.5,0.5,0,0,0-.309-0.074,0.441,0.441,0,0,0-.28.133l-0.647.618a1.105,1.105,0,0,0-.324.883,0.4,0.4,0,0,0,.177.353,2.12,2.12,0,0,1,.324.265,2.132,2.132,0,0,1,0,3l-1.972,1.972a2.043,2.043,0,0,1-1.5.618,2.11,2.11,0,0,1-2.1-2.134,2.08,2.08,0,0,1,.633-1.486l0.383-.412a0.43,0.43,0,0,0,.118-0.471,5.349,5.349,0,0,1-.294-1.56,0.472,0.472,0,0,0-.309-0.412,0.409,0.409,0,0,0-.486.088l-1.118,1.118a4.294,4.294,0,0,0-1.148,2,4.549,4.549,0,0,0,0,2.3,4.487,4.487,0,0,0,3.179,3.179,4.549,4.549,0,0,0,2.3,0,4.293,4.293,0,0,0,2-1.148l2-2a4.293,4.293,0,0,0,1.148-2,4.551,4.551,0,0,0,0-2.3A4.485,4.485,0,0,0,66.843,64.437Zm4.15-4.15a4.486,4.486,0,0,1,1.148,2.031,4.551,4.551,0,0,1,0,2.3,4.294,4.294,0,0,1-1.148,2l-1.118,1.119a0.409,0.409,0,0,1-.486.088,0.472,0.472,0,0,1-.309-0.412,5.35,5.35,0,0,0-.294-1.56,0.43,0.43,0,0,1,.118-0.471l0.383-.412a2.08,2.08,0,0,0,.633-1.486,2.113,2.113,0,0,0-3.606-1.516l-1.972,1.972a2.132,2.132,0,0,0,0,3,2.115,2.115,0,0,0,.324.265,0.4,0.4,0,0,1,.177.353,1.105,1.105,0,0,1-.324.883l-0.648.618a0.441,0.441,0,0,1-.28.132,0.5,0.5,0,0,1-.309-0.074,7.653,7.653,0,0,1-.618-0.5,4.485,4.485,0,0,1-1.148-2.031,4.549,4.549,0,0,1,0-2.3,4.293,4.293,0,0,1,1.148-2l2-2a4.294,4.294,0,0,1,2-1.148,4.551,4.551,0,0,1,2.3,0A4.486,4.486,0,0,1,70.993,60.287Z"/>
  <path class="cls-1" d="M103,22.983v-2h14.01v2H103Z"/>
  <path id="Shape_16_copy_2" data-name="Shape 16 copy 2" class="cls-1" d="M146,22.983v-2h14.01v2H146Z"/>
  <path id="Shape_16_copy" data-name="Shape 16 copy" class="cls-1" d="M108.986,14.963h2v14.01h-2V14.963Z"/>
</svg>
