<?xml version="1.0" encoding="UTF-8"?>
<svg enable-background="new 0 0 464 464" version="1.1" viewBox="0 0 464 464" xml:space="preserve" xmlns="http://www.w3.org/2000/svg">
    <defs>
    <style>
      .coupon {
        fill: #d6d6d6;
        fill-rule: evenodd;
      }
    </style>
</defs>
		<path class="coupon" d="m351.54 332.49l-34.718-34.72 35.951-35.888 111.23 0.016-0.129-255.97-335.84-0.032-128.03 128.03 128.03 127.97h62.434l35.824 35.872-34.721 34.72c-21.313-5.632-44.897-0.352-61.6 16.352-24.992 24.992-24.992 65.52 0 90.513 24.992 24.991 65.519 24.991 90.512 0 16.703-16.705 21.984-40.289 16.351-61.601l34.718-34.72 34.721 34.72c-5.631 21.312-0.351 44.896 16.354 61.601 24.99 24.991 65.519 24.991 90.512 0 24.992-24.993 24.992-65.521 0-90.513-16.704-16.704-40.288-21.984-61.601-16.352zm-216.88-86.544l-112.03-112.03 112.03-112.02 137.34-0.064v48.064h16v-48.064l160 0.016v224.05l-79.408 0.08 21.568-21.568v-90.512l-102.62 102.62v-38.544h-15.535v47.984l-137.34-0.016zm267.15 182.11c-18.721 18.721-49.168 18.721-67.889 0-12.08-12.079-16.641-29.36-12.191-46.208l2.351-8.896-52.545-52.544-52.543 52.544 2.351 8.896c4.45 16.848-0.111 34.112-12.191 46.208-18.721 18.721-49.168 18.721-67.889 0-18.721-18.72-18.721-49.168 0-67.888 12.08-12.08 29.362-16.64 46.209-12.192l8.894 2.352 52.545-52.545-35.824-35.824h45.264l13.199 13.2 102.63-102.62v45.247l-80 80 52.527 52.545 8.897-2.352c16.848-4.448 34.111 0.112 46.209 12.192 18.718 18.72 18.718 49.168 0 67.888z"/>
		<circle class="coupon" cx="124.48" cy="133.9" r="24"/>
		<path class="coupon" d="m390.5 371.5c-12.496-12.496-32.752-12.496-45.248 0s-12.496 32.752 0 45.247c12.481 12.496 32.752 12.496 45.248 0s12.496-32.752 0-45.247zm-11.328 33.92c-6.24 6.24-16.385 6.24-22.625 0-6.238-6.24-6.222-16.384 0-22.624 6.24-6.24 16.385-6.24 22.625 0s6.24 16.384 0 22.624z"/>
		<path class="coupon" d="m197.82 371.48c-12.496-12.496-32.752-12.496-45.248 0s-12.496 32.752 0 45.248 32.752 12.496 45.248 0 12.496-32.752 0-45.248zm-11.312 33.952c-6.24 6.24-16.383 6.24-22.625 0-6.238-6.24-6.238-16.384 0-22.624 6.242-6.24 16.385-6.24 22.625 0s6.24 16.384 0 22.624z"/>
		<rect class="coupon" x="272" y="101.9" width="16" height="64"/>
</svg>
